<?xml version="1.0" standalone="no"?>
<!DOCTYPE svg PUBLIC "-//W3C//DTD SVG 20010904//EN"
 "http://www.w3.org/TR/2001/REC-SVG-20010904/DTD/svg10.dtd">
<svg version="1.0" xmlns="http://www.w3.org/2000/svg"
 width="2000.000000pt" height="2000.000000pt" viewBox="0 0 2000.000000 2000.000000"
 preserveAspectRatio="xMidYMid meet">
<metadata>
Created by potrace 1.14, written by Peter Selinger 2001-2017
</metadata>
<g transform="translate(0.000000,2000.000000) scale(0.100000,-0.100000)"
fill="#000000" stroke="none">
<path d="M9860 16169 c-74 -44 -144 -84 -155 -90 -11 -5 -29 -15 -40 -22 -25
-15 -167 -97 -215 -125 -19 -10 -75 -43 -125 -72 -49 -29 -108 -62 -130 -75
-22 -12 -123 -71 -225 -130 -102 -59 -205 -119 -230 -132 -25 -14 -81 -47
-125 -73 -44 -26 -217 -126 -385 -223 -168 -96 -321 -184 -340 -195 -19 -12
-62 -36 -95 -55 -92 -52 -112 -64 -385 -222 -140 -81 -271 -157 -290 -168 -19
-11 -134 -77 -255 -147 -121 -70 -236 -137 -255 -148 -19 -10 -163 -93 -320
-184 -157 -91 -346 -200 -420 -243 -74 -43 -155 -89 -180 -103 -25 -14 -57
-33 -72 -43 -14 -11 -29 -19 -32 -19 -3 0 -43 -22 -88 -49 -46 -27 -166 -96
-268 -155 -102 -58 -192 -111 -200 -116 -8 -5 -40 -23 -70 -40 -30 -17 -62
-35 -70 -40 -8 -6 -80 -48 -159 -93 l-143 -84 0 -3122 c0 -3039 0 -3123 18
-3135 11 -8 141 -83 289 -169 436 -251 1417 -818 1450 -838 17 -10 37 -22 45
-26 8 -4 38 -20 65 -36 28 -17 68 -40 90 -52 22 -13 182 -105 355 -205 173
-101 335 -194 360 -208 25 -14 140 -80 255 -147 116 -67 299 -173 408 -236
108 -63 205 -118 215 -124 29 -17 346 -199 364 -210 10 -5 84 -48 165 -95 81
-47 153 -86 160 -88 7 -2 13 -8 13 -13 0 -5 4 -9 9 -9 5 0 150 -82 322 -181
173 -100 329 -190 346 -200 18 -10 119 -69 225 -130 106 -61 208 -120 226
-130 l33 -19 332 192 c183 105 412 238 510 295 97 56 194 112 215 123 20 11
44 25 52 30 34 23 362 210 367 210 4 0 14 6 22 14 9 7 43 28 76 46 33 18 274
157 535 308 261 151 491 284 510 295 38 21 332 191 390 225 19 12 46 27 60 35
14 7 158 90 320 184 162 94 381 220 485 280 105 60 251 145 325 188 74 43 153
89 175 100 22 12 91 52 153 89 62 36 132 77 155 90 23 13 155 88 292 168 138
79 292 168 343 197 l92 53 0 52 c1 89 1 6170 1 6187 -1 15 -155 108 -471 287
-25 14 -124 71 -220 127 -96 56 -209 121 -250 145 -41 23 -88 50 -105 60 -143
82 -1075 621 -1320 763 -170 99 -328 189 -350 201 -22 13 -99 57 -172 99 -72
42 -147 85 -165 95 -18 11 -105 61 -193 112 -88 51 -173 101 -190 110 -16 9
-158 91 -315 182 -157 91 -305 176 -330 190 -88 49 -745 430 -755 438 -5 4
-35 21 -65 37 -30 16 -157 89 -282 161 -125 73 -228 132 -230 132 -2 -1 -64
-37 -138 -81z m292 -592 c79 -46 298 -173 488 -282 190 -109 357 -206 372
-216 15 -11 29 -19 32 -19 2 0 40 -21 83 -46 43 -26 98 -58 123 -72 45 -25
137 -78 480 -278 102 -59 199 -114 215 -122 17 -9 53 -31 82 -49 29 -18 54
-33 56 -33 3 0 72 -39 153 -87 82 -47 170 -98 195 -112 50 -29 375 -217 399
-231 63 -38 153 -90 156 -90 2 0 43 -24 92 -53 49 -30 97 -57 106 -60 9 -4 41
-22 71 -42 31 -19 57 -35 59 -35 4 0 139 -77 176 -100 17 -11 129 -74 180
-103 19 -11 46 -27 60 -37 14 -9 30 -19 35 -21 16 -6 289 -163 295 -169 3 -3
14 -10 25 -16 51 -28 129 -72 375 -214 146 -85 274 -158 285 -164 11 -6 52
-30 90 -53 l70 -43 0 -2831 0 -2831 -380 -220 c-209 -121 -405 -233 -435 -250
-30 -17 -59 -34 -65 -38 -5 -5 -33 -21 -61 -37 -51 -28 -327 -187 -354 -204
-16 -9 -159 -92 -220 -127 -107 -61 -237 -136 -325 -187 -55 -32 -113 -66
-130 -75 -16 -9 -149 -86 -294 -170 -146 -84 -279 -160 -295 -170 -121 -67
-376 -216 -398 -231 -15 -11 -29 -19 -32 -19 -3 0 -29 -14 -58 -31 -54 -32
-484 -280 -548 -316 -19 -11 -60 -35 -90 -53 -30 -18 -71 -42 -90 -53 -19 -10
-168 -96 -330 -190 -162 -93 -308 -178 -325 -187 -16 -10 -57 -33 -90 -52 -33
-19 -109 -63 -170 -98 -60 -35 -126 -73 -145 -85 -68 -43 -58 -47 -344 120
-147 85 -269 155 -271 155 -2 0 -48 27 -103 59 -55 33 -190 111 -299 174 -271
156 -998 576 -1162 671 -74 43 -150 87 -168 97 -18 10 -119 69 -225 130 -191
111 -225 130 -293 169 -60 34 -95 54 -249 144 -82 47 -151 86 -153 86 -2 0
-16 8 -31 19 -24 16 -368 216 -482 279 -25 14 -74 42 -109 64 -34 21 -64 38
-66 38 -2 0 -95 53 -207 119 -113 65 -229 132 -259 149 -30 16 -143 82 -253
146 -109 64 -200 116 -202 116 -2 0 -25 14 -51 30 l-48 31 0 2825 c0 1554 2
2828 5 2833 6 9 132 83 580 341 184 106 373 215 420 243 47 27 110 64 140 80
30 17 87 49 125 72 39 23 131 77 205 119 74 43 142 82 150 87 40 24 288 166
300 172 8 4 36 20 61 35 56 33 248 144 579 335 96 55 312 180 480 277 168 97
487 282 710 410 223 129 488 282 590 341 493 284 555 319 562 319 4 0 71 -37
150 -83z"/>
<path d="M9808 12815 c-1 -2 -192 -6 -423 -10 -231 -3 -503 -8 -605 -10 -102
-2 -381 -6 -619 -10 -239 -3 -438 -8 -441 -10 -3 -2 -5 -64 -4 -137 3 -253 14
-974 19 -1243 4 -260 9 -549 21 -1300 3 -192 7 -449 9 -570 5 -284 5 -801 1
-885 -3 -36 -7 -150 -10 -255 -4 -104 -9 -237 -11 -295 -6 -129 -13 -329 -20
-560 -3 -96 -8 -198 -10 -227 -3 -30 0 -55 6 -59 11 -7 52 -9 274 -19 77 -3
178 -7 225 -10 255 -13 594 -19 1090 -19 584 -1 654 2 880 40 116 20 127 22
148 28 9 3 32 8 49 11 54 9 258 73 356 112 96 37 235 103 315 150 56 33 224
147 260 177 95 79 136 118 207 191 95 97 102 105 184 213 58 77 170 253 219
347 150 285 273 707 318 1085 2 19 7 55 10 80 35 265 37 801 4 1060 -6 41 -12
91 -14 110 -9 64 -17 115 -22 140 -3 14 -8 35 -10 48 -72 381 -260 796 -476
1051 -63 73 -209 221 -248 250 -19 14 -44 34 -55 44 -45 42 -237 162 -345 216
-209 104 -446 179 -690 217 -19 3 -42 7 -50 9 -8 2 -44 7 -80 10 -36 4 -76 9
-90 11 -14 2 -97 7 -185 10 -88 3 -165 7 -172 9 -6 2 -13 2 -15 0z m182 -738
c644 -78 1038 -400 1234 -1005 44 -137 89 -346 101 -467 2 -17 6 -53 10 -80 3
-28 8 -63 10 -80 21 -167 22 -675 0 -845 -2 -19 -7 -62 -10 -95 -39 -386 -164
-763 -335 -1008 -215 -308 -520 -499 -915 -572 -182 -34 -464 -37 -910 -10
-22 2 -96 6 -165 9 -69 4 -136 9 -150 12 -14 2 -74 6 -135 10 -60 3 -112 7
-116 9 -3 3 -7 44 -9 92 -12 461 -22 897 -22 963 0 58 7 638 17 1300 3 234 11
741 20 1419 3 173 6 316 9 318 7 8 153 16 511 29 82 3 150 6 151 7 5 5 663 -1
704 -6z"/>
</g>
</svg>
