<?xml version="1.0" encoding="UTF-8"?>
<svg version="1.1" xmlns="http://www.w3.org/2000/svg" width="476" height="211">
<path d="M0 0 C11.87956161 8.74318549 16.98966985 20.8755478 19.70874023 35.02490234 C20.52810324 40.65138999 20.45175401 46.31016044 20.48266602 51.98535156 C20.49408187 53.43564694 20.5143649 54.88590388 20.54418945 56.3359375 C20.89519792 73.46671965 17.89622474 92.21969745 5.875 105.375 C-3.00736121 113.2088865 -13.77411588 115.73214245 -25.375 115.1875 C-36.66677276 113.98624758 -44.15672735 109.71000841 -51.8125 101.3125 C-65.20559954 84.01068472 -65.6426892 57.85546243 -63.0625 36.9375 C-60.83397594 23.45726703 -55.88379663 9.81415654 -45.07421875 0.875 C-32.16464322 -8.10557428 -13.26523207 -8.27949008 0 0 Z M-29.8125 25.3125 C-34.81668503 34.77901563 -35.0204351 43.87454901 -35.0625 54.375 C-35.083125 55.63505859 -35.10375 56.89511719 -35.125 58.19335938 C-35.16270202 67.31253621 -34.66815366 76.38895921 -30 84.4375 C-27.23745713 86.80539389 -25.4252694 87.74579107 -21.8125 88.3125 C-16.51318791 86.75925335 -13.9151021 84.80042032 -10.8125 80.3125 C-7.66149106 72.05873779 -7.53644003 63.28428177 -7.5 54.5625 C-7.49452148 53.6048877 -7.48904297 52.64727539 -7.48339844 51.66064453 C-7.58153775 41.8450208 -8.60650455 31.40523094 -15.234375 23.6484375 C-20.24769825 19.40448564 -25.54718587 21.23675539 -29.8125 25.3125 Z " fill="#8A26AB" transform="translate(450.8125,94.6875)"/>
<path d="M0 0 C48.76541096 0 48.76541096 0 61.875 12.375 C73.14361964 24.71938285 76.69101117 42.07707375 76.1875 58.47265625 C74.94838924 75.17483666 72.55789945 91.15885124 59.8125 103.3125 C42.63441993 117.60350779 21.71752047 114 0 114 C0 76.38 0 38.76 0 0 Z M27 25 C27 46.12 27 67.24 27 89 C35.84002177 87.10504233 35.84002177 87.10504233 42.1875 81.3125 C49.18832995 68.54628068 48.22043311 52.67709892 44.9140625 38.97265625 C43.13611923 33.1905416 40.24119824 29.21618983 35 26 C32.36 25.67 29.72 25.34 27 25 Z " fill="#9F93A3" transform="translate(6,5)"/>
<path d="M0 0 C9.9 0 19.8 0 30 0 C34.11366249 14.2552849 38.05848878 28.53920106 41.8359375 42.88671875 C42.36533211 44.89218656 42.89484504 46.89762314 43.42446899 48.9030304 C44.51990692 53.05290234 45.61379328 57.20317917 46.70654297 61.35375977 C48.10889651 66.6796954 49.51549978 72.00449853 50.92323875 77.32901287 C52.01101772 81.44533967 53.09649199 85.56227145 54.18126297 89.67939186 C54.69965152 91.64565388 55.21878969 93.61171842 55.73868942 95.57758141 C56.45885793 98.30199888 57.17589731 101.0272206 57.89208984 103.75268555 C58.1070813 104.56342026 58.32207275 105.37415497 58.5435791 106.2094574 C60 111.77149625 60 111.77149625 60 114 C50.76 114 41.52 114 32 114 C31.34 111.421875 30.68 108.84375 30 106.1875 C29.79117188 105.37949951 29.58234375 104.57149902 29.3671875 103.73901367 C28.61157242 100.75141061 28 98.09329602 28 95 C19.09 95 10.18 95 1 95 C0.67 97.64 0.34 100.28 0 103 C-0.99 106.63 -1.98 110.26 -3 114 C-11.91 114 -20.82 114 -30 114 C-28.68641296 106.77527126 -27.28807762 99.79547839 -25.41796875 92.72680664 C-25.16729645 91.76602203 -24.91662415 90.80523743 -24.65835571 89.81533813 C-23.83889511 86.6791717 -23.01344029 83.54462188 -22.1875 80.41015625 C-21.61198885 78.2159174 -21.036716 76.02161603 -20.46166992 73.82725525 C-19.26069216 69.24829444 -18.05670643 64.67013808 -16.85058594 60.0925293 C-15.30463802 54.22409548 -13.76648606 48.35365079 -12.23057556 42.48258305 C-11.04647411 37.95994148 -9.85817716 33.43841051 -8.66860962 28.9172039 C-8.09953871 26.75218786 -7.53180192 24.5868207 -6.96542358 22.42109871 C-6.17523883 19.40206388 -5.37939563 16.38457696 -4.58203125 13.36743164 C-4.34924469 12.47337112 -4.11645813 11.57931061 -3.87661743 10.65815735 C-3.65799042 9.8355542 -3.4393634 9.01295105 -3.21411133 8.16542053 C-3.02681961 7.45333467 -2.83952789 6.7412488 -2.64656067 6.00758457 C-2 4 -2 4 0 0 Z M14 29 C13.86424561 29.79470703 13.72849121 30.58941406 13.58862305 31.40820312 C11.15715265 45.62453615 8.71851129 59.83512539 6 74 C11.61 74 17.22 74 23 74 C22.50628906 71.33808594 22.01257813 68.67617187 21.50390625 65.93359375 C21.02366566 63.33884881 20.54391416 60.74401389 20.06420898 58.14916992 C19.73203758 56.35382793 19.39936239 54.55857906 19.06616211 52.76342773 C18.58573207 50.1745633 18.10714922 47.58536298 17.62890625 44.99609375 C17.48095108 44.20101913 17.33299591 43.40594452 17.18055725 42.58677673 C16.3480601 38.06821194 15.6171461 33.55310794 15 29 C14.67 29 14.34 29 14 29 Z " fill="#9F93A3" transform="translate(161,5)"/>
<path d="M0 0 C72.93 0 145.86 0 221 0 C221 7.26 221 14.52 221 22 C148.07 22 75.14 22 0 22 C0 14.74 0 7.48 0 0 Z " fill="#8A26AB" transform="translate(8,182)"/>
<path d="M0 0 C65.34 0 130.68 0 198 0 C198 7.26 198 14.52 198 22 C132.66 22 67.32 22 0 22 C0 14.74 0 7.48 0 0 Z " fill="#8A26AB" transform="translate(268,4)"/>
<path d="M0 0 C20.46 0 40.92 0 62 0 C62 8.91 62 17.82 62 27 C56.06 27 50.12 27 44 27 C44 55.71 44 84.42 44 114 C35.09 114 26.18 114 17 114 C17 85.29 17 56.58 17 27 C11.39 27 5.78 27 0 27 C0 18.09 0 9.18 0 0 Z " fill="#9F93A3" transform="translate(273,93)"/>
</svg>
