<svg xmlns="http://www.w3.org/2000/svg" version="1.1" xmlns:xlink="http://www.w3.org/1999/xlink" xmlns:svgjs="http://svgjs.dev/svgjs" width="2000" height="1250" viewBox="0 0 2000 1250"><g transform="matrix(1,0,0,1,0,0)"><svg viewBox="0 0 576 360" data-background-color="#ffffff" preserveAspectRatio="xMidYMid meet" height="1250" width="2000" xmlns="http://www.w3.org/2000/svg" xmlns:xlink="http://www.w3.org/1999/xlink"><g id="tight-bounds" transform="matrix(1,0,0,1,0,0)"><svg viewBox="0 0 576 360" height="360" width="576"><g><svg></svg></g><g><svg viewBox="0 0 576 360" height="360" width="576"><g><path d="M132.115 90l155.885-90 155.885 90v180l-155.885 90-155.885-90zM146.725 261.565l141.275 81.566 141.275-81.566v-163.13l-141.275-81.566-141.275 81.566z" fill="#64ffda" fill-rule="nonzero" stroke="none" stroke-width="1" stroke-linecap="butt" stroke-linejoin="miter" stroke-miterlimit="10" stroke-dasharray="" stroke-dashoffset="0" font-family="none" font-weight="none" font-size="none" text-anchor="none" style="mix-blend-mode: normal" data-fill-palette-color="tertiary"></path></g><g transform="matrix(1,0,0,1,222.1564417177914,99)"><svg viewBox="0 0 131.68711656441718 162" height="162" width="131.68711656441718"><g><svg viewBox="0 0 131.68711656441718 162" height="162" width="131.68711656441718"><g><svg viewBox="0 0 131.68711656441718 162" height="162" width="131.68711656441718"><g><svg viewBox="0 0 131.68711656441718 162" height="162" width="131.68711656441718"><g id="textblocktransform"><svg viewBox="0 0 131.68711656441718 162" height="162" width="131.68711656441718" id="textblock"><g><svg viewBox="0 0 131.68711656441718 162" height="162" width="131.68711656441718"><g transform="matrix(1,0,0,1,0,0)"><svg width="131.68711656441718" viewBox="4.3 -32.3 26.500000000000004 32.599999999999994" height="162" data-palette-color="#64ffda"><path d="M16.5-32.3Q23.4-32.3 27.1-28.4 30.8-24.5 30.8-17.2L30.8-17.2Q30.8-8.75 26.75-4.23 22.7 0.3 15.1 0.3L15.1 0.3Q12.95 0.3 9.95 0.23 6.95 0.15 4.35 0L4.35 0 4.3 0 4.65-9.65 4.3-32.1 4.35-32.1 16.5-32.3ZM16-3.8Q20.6-3.8 23.03-6.85 25.45-9.9 25.45-16.05L25.45-16.05Q25.45-22.25 23.13-25.18 20.8-28.1 16.1-28.1L16.1-28.1Q13.35-28.1 9.55-27.9L9.55-27.9 9.3-10.1 9.45-4.15Q11.25-4 13.05-3.9 14.85-3.8 16-3.8L16-3.8Z" opacity="1" transform="matrix(1,0,0,1,0,0)" fill="#64ffda" class="undefined-text-0" data-fill-palette-color="primary" id="text-0"></path></svg></g></svg></g></svg></g></svg></g></svg></g></svg></g></svg></g></svg></g><defs></defs></svg><rect width="576" height="360" fill="none" stroke="none" visibility="hidden"></rect></g></svg></g></svg>